<svg xmlns="http://www.w3.org/2000/svg" version="1.1" xmlns:xlink="http://www.w3.org/1999/xlink" xmlns:svgjs="http://svgjs.dev/svgjs" viewBox="0 0 800 800" opacity=".7" width="800" height="800"><g stroke-width="9.5" stroke="hsla(261, 2%, 70%, 1.00)" fill="none"><rect width="400" height="400" x="0" y="0" opacity="0.15"></rect><circle r="25.06578947368421" cx="0" cy="0" fill="hsla(261, 2%, 70%, 1.00)" stroke="none"></circle><rect width="400" height="400" x="400" y="0" opacity="0.15"></rect><circle r="25.06578947368421" cx="400" cy="0" fill="hsla(261, 2%, 70%, 1.00)" stroke="none"></circle><rect width="400" height="400" x="800" y="0" opacity="0.15"></rect><circle r="25.06578947368421" cx="800" cy="0" fill="hsla(261, 2%, 70%, 1.00)" stroke="none"></circle><rect width="400" height="400" x="0" y="400" opacity="0.15"></rect><circle r="25.06578947368421" cx="0" cy="400" fill="hsla(261, 2%, 70%, 1.00)" stroke="none"></circle><rect width="400" height="400" x="400" y="400" opacity="0.15"></rect><circle r="25.06578947368421" cx="400" cy="400" fill="hsla(261, 2%, 70%, 1.00)" stroke="none"></circle><rect width="400" height="400" x="800" y="400" opacity="0.15"></rect><circle r="25.06578947368421" cx="800" cy="400" fill="hsla(261, 2%, 70%, 1.00)" stroke="none"></circle><rect width="400" height="400" x="0" y="800" opacity="0.15"></rect><circle r="25.06578947368421" cx="0" cy="800" fill="hsla(261, 2%, 70%, 1.00)" stroke="none"></circle><rect width="400" height="400" x="400" y="800" opacity="0.15"></rect><circle r="25.06578947368421" cx="400" cy="800" fill="hsla(261, 2%, 70%, 1.00)" stroke="none"></circle><rect width="400" height="400" x="800" y="800" opacity="0.15"></rect><circle r="25.06578947368421" cx="800" cy="800" fill="hsla(261, 2%, 70%, 1.00)" stroke="none"></circle></g></svg>